<svg width="128" height="128" viewBox="0 0 128 128" fill="none" xmlns="http://www.w3.org/2000/svg">
  <defs>
    <linearGradient id="shield" x1="24" y1="14" x2="105" y2="114" gradientUnits="userSpaceOnUse">
      <stop stop-color="#8BF2DB"/>
      <stop offset="1" stop-color="#0DA87E"/>
    </linearGradient>
    <linearGradient id="play" x1="40" y1="32" x2="89" y2="92" gradientUnits="userSpaceOnUse">
      <stop stop-color="#07141B"/>
      <stop offset="1" stop-color="#10313A"/>
    </linearGradient>
  </defs>
  <path d="M64 10L105 24V54C105 83.5152 87.3556 108.726 60.7166 118L55 120L49.2834 118C22.6444 108.726 5 83.5152 5 54V24L46 10C52.0413 7.93762 57.9587 7.93762 64 10Z" fill="url(#shield)"/>
  <path d="M52 39.4853C52 35.8363 56.0335 33.6386 59.0924 35.6142L82.8217 50.9488C85.6222 52.7587 85.6222 56.8418 82.8217 58.6517L59.0924 73.9864C56.0335 75.962 52 73.7643 52 70.1153V39.4853Z" fill="url(#play)"/>
  <path d="M86 44C92.6274 47.2653 97 54.0841 97 62C97 69.9159 92.6274 76.7347 86 80" stroke="#E8FFF8" stroke-width="6" stroke-linecap="round"/>
  <path d="M95 34C104.106 39.2145 110 49.0412 110 60C110 70.9588 104.106 80.7855 95 86" stroke="#D6FFF4" stroke-width="4" stroke-linecap="round" opacity="0.72"/>
</svg>
